<svg xmlns="http://www.w3.org/2000/svg" viewBox="0 0 800 600" role="img" aria-labelledby="title desc">
  <title>Битва при Аустерлице</title>
  <desc>Иллюстрация с рассветом, знаменем и построением французской армии на Пратценских высотах.</desc>
  <defs>
    <linearGradient id="a-bg" x1="0" x2="1" y1="0" y2="1">
      <stop offset="0%" stop-color="#1c2b45"/>
      <stop offset="55%" stop-color="#8a5b38"/>
      <stop offset="100%" stop-color="#f0cf8f"/>
    </linearGradient>
    <radialGradient id="a-sun" cx="73%" cy="26%" r="32%">
      <stop offset="0%" stop-color="#fff0c6"/>
      <stop offset="100%" stop-color="#fff0c6" stop-opacity="0"/>
    </radialGradient>
  </defs>
  <rect width="800" height="600" fill="url(#a-bg)"/>
  <rect width="800" height="600" fill="url(#a-sun)"/>
  <path d="M0 350c126-80 229-33 341-71 125-43 165-135 282-127 66 5 121 37 177 73V600H0Z" fill="#dbc4a0" opacity=".5"/>
  <path d="M0 431c135-37 228 50 348 17 94-26 158-107 267-107 79 0 129 31 185 67V600H0Z" fill="#3c2a1f" opacity=".95"/>
  <g fill="#f9eedc" font-family="Georgia, serif" text-anchor="middle">
    <text x="400" y="114" font-size="58" font-weight="700">АУСТЕРЛИЦ</text>
    <text x="400" y="156" font-size="24" letter-spacing="4">1805 • СОЛНЦЕ ИМПЕРИИ</text>
  </g>
  <g transform="translate(154 232)">
    <path d="M76 0h123l-31 65 31 65H76Z" fill="#c63431"/>
    <path d="M76 0h32v130H76Z" fill="#ead9ba"/>
    <path d="M70 -18v230" stroke="#f2e2c1" stroke-width="11" stroke-linecap="round"/>
    <circle cx="70" cy="-24" r="16" fill="#f2d28b"/>
  </g>
  <g fill="#1b1714">
    <path d="M175 428c34-55 84-78 150-72 48 5 86 24 122 66-86 13-182 15-272 6Z"/>
    <path d="M388 427c36-44 89-66 157-66 62 0 109 24 144 69-94 9-199 8-301-3Z"/>
  </g>
  <g stroke="#f0e5d1" stroke-width="10" stroke-linecap="round">
    <path d="M207 376l33-79"/>
    <path d="M284 395l38-90"/>
    <path d="M355 401l34-74"/>
    <path d="M518 393l40-84"/>
  </g>
</svg>
