<svg xmlns="http://www.w3.org/2000/svg" viewBox="0 0 800 600" role="img" aria-labelledby="title desc">
  <title>Йена-Ауэрштедт</title>
  <desc>Иллюстрация с линией прусских знамён и французской атакой в серо-синей палитре.</desc>
  <defs>
    <linearGradient id="j-bg" x1="0" x2="1" y1="0" y2="1">
      <stop offset="0%" stop-color="#1b232f"/>
      <stop offset="50%" stop-color="#53616f"/>
      <stop offset="100%" stop-color="#d0ab67"/>
    </linearGradient>
  </defs>
  <rect width="800" height="600" fill="url(#j-bg)"/>
  <path d="M0 440c143-75 254-18 392-46 119-24 168-108 280-99 49 4 86 20 128 47V600H0Z" fill="#151515" opacity=".93"/>
  <g fill="#f6ead7" font-family="Georgia, serif" text-anchor="middle">
    <text x="400" y="108" font-size="54" font-weight="700">ЙЕНА-АУЭРШТЕДТ</text>
    <text x="400" y="149" font-size="22" letter-spacing="4">1806 • РАЗГРОМ ПРУССИИ</text>
  </g>
  <g transform="translate(156 202)">
    <g stroke="#eadfc8" stroke-width="12" stroke-linecap="round">
      <path d="M40 0v188"/>
      <path d="M218 -26v213"/>
      <path d="M392 3v184"/>
    </g>
    <g fill="#b52e31">
      <path d="M40 0h134l-27 58 27 58H40Z"/>
      <path d="M218 -26h146l-29 65 29 65H218Z"/>
      <path d="M392 3h122l-24 52 24 52H392Z"/>
    </g>
  </g>
  <g fill="#1c1714">
    <path d="M150 440c53-65 112-99 193-99 64 0 120 20 174 63-114 16-236 25-367 36Z"/>
    <path d="M402 434c42-49 94-74 157-74 55 0 101 17 145 52-96 16-201 24-302 22Z"/>
  </g>
  <g stroke="#efe6d6" stroke-width="9" stroke-linecap="round">
    <path d="M216 379l30-89"/>
    <path d="M307 391l34-96"/>
    <path d="M529 386l29-79"/>
  </g>
</svg>
