<svg xmlns="http://www.w3.org/2000/svg" viewBox="0 0 800 600" role="img" aria-labelledby="title desc">
  <title>Ваграм</title>
  <desc>Иллюстрация с батареей французской артиллерии и дымом сражения.</desc>
  <defs>
    <linearGradient id="w-bg" x1="0" x2="1" y1="0" y2="1">
      <stop offset="0%" stop-color="#4b3327"/>
      <stop offset="48%" stop-color="#906544"/>
      <stop offset="100%" stop-color="#e0bb79"/>
    </linearGradient>
  </defs>
  <rect width="800" height="600" fill="url(#w-bg)"/>
  <g fill="#f2e4c8" opacity=".84">
    <circle cx="222" cy="220" r="56"/>
    <circle cx="289" cy="196" r="72"/>
    <circle cx="360" cy="220" r="58"/>
  </g>
  <path d="M0 458c109-38 210 42 336 13 91-21 150-87 255-87 78 0 132 28 209 66V600H0Z" fill="#2e211b" opacity=".96"/>
  <g fill="#fff0da" font-family="Georgia, serif" text-anchor="middle">
    <text x="400" y="106" font-size="56" font-weight="700">ВАГРАМ</text>
    <text x="400" y="147" font-size="24" letter-spacing="4">1809 • ВЕЛИКАЯ БАТАРЕЯ</text>
  </g>
  <g transform="translate(154 344)" fill="#1a1310">
    <rect x="0" y="62" width="88" height="36" rx="10"/>
    <rect x="150" y="50" width="88" height="36" rx="10"/>
    <rect x="300" y="68" width="88" height="36" rx="10"/>
    <rect x="446" y="54" width="88" height="36" rx="10"/>
  </g>
  <g stroke="#1a1310" stroke-width="15" stroke-linecap="round">
    <path d="M243 407l95-44"/>
    <path d="M392 395l102-49"/>
    <path d="M542 413l103-41"/>
  </g>
  <g fill="#d6b27c">
    <circle cx="218" cy="420" r="17"/>
    <circle cx="367" cy="408" r="17"/>
    <circle cx="516" cy="426" r="17"/>
    <circle cx="663" cy="412" r="17"/>
  </g>
</svg>
